<svg width="72" height="76" viewBox="0 0 72 76" fill="none" xmlns="http://www.w3.org/2000/svg">
<path d="M72 38C72 31.7352 70.5326 25.5675 67.7284 20.046C64.9242 14.5245 60.8703 9.82052 55.9274 6.35269C50.9845 2.88486 45.306 0.760808 39.3974 0.16959C33.4887 -0.421628 27.5333 0.538333 22.0611 2.96403L27.1885 15.852C30.6477 14.3185 34.4125 13.7117 38.1476 14.0854C41.8828 14.4592 45.4725 15.8019 48.5971 17.9941C51.7218 20.1863 54.2845 23.1599 56.0572 26.6504C57.8298 30.1408 58.7575 34.0397 58.7575 38H72Z" fill="#8B8989"/>
<path d="M22.0574 2.96565C16.0363 5.63553 10.8166 9.98406 6.95742 15.5455C3.09828 21.1069 0.745063 27.6716 0.149833 34.5366C-0.445398 41.4016 0.739777 48.3082 3.57842 54.5167C6.41706 60.7251 10.8022 66.0016 16.2642 69.7808C21.7262 73.56 28.0593 75.6997 34.5851 75.9706C41.1109 76.2416 47.5837 74.6336 53.31 71.3189C59.0363 68.0041 63.8006 63.1076 67.0924 57.1537C70.3843 51.1997 72.0797 44.4127 71.9971 37.5196L58.7556 37.6963C58.8078 42.0538 57.7361 46.3442 55.6551 50.108C53.5742 53.8718 50.5625 56.9672 46.9425 59.0626C43.3226 61.158 39.2309 62.1745 35.1056 62.0032C30.9803 61.8319 26.9768 60.4793 23.524 58.0903C20.0712 55.7012 17.2991 52.3657 15.5046 48.4411C13.7102 44.5164 12.961 40.1503 13.3373 35.8106C13.7135 31.4709 15.2011 27.321 17.6407 23.8053C20.0803 20.2897 23.3799 17.5408 27.1862 15.853L22.0574 2.96565Z" fill="#483F3F"/>
</svg>
