<svg width="15" height="15" viewBox="0 0 15 15" fill="none" xmlns="http://www.w3.org/2000/svg">
<path d="M7.50005 10C7.35402 10.0003 7.21249 9.94943 7.10005 9.85625L3.35005 6.73125C3.22241 6.62517 3.14215 6.47272 3.12691 6.30746C3.11167 6.14219 3.16271 5.97764 3.2688 5.85C3.37489 5.72237 3.52733 5.6421 3.6926 5.62687C3.85786 5.61163 4.02241 5.66267 4.15005 5.76875L7.50005 8.56875L10.8501 5.86875C10.914 5.81684 10.9875 5.77807 11.0665 5.75467C11.1455 5.73128 11.2283 5.72372 11.3102 5.73243C11.3921 5.74114 11.4714 5.76595 11.5437 5.80544C11.616 5.84492 11.6797 5.8983 11.7313 5.9625C11.7885 6.02677 11.8319 6.10216 11.8586 6.18396C11.8854 6.26575 11.8949 6.35219 11.8867 6.43785C11.8785 6.52352 11.8527 6.60656 11.8109 6.68179C11.7691 6.75701 11.7122 6.82279 11.6438 6.875L7.8938 9.89375C7.77812 9.9722 7.63949 10.0096 7.50005 10Z" fill="#231F20"/>
</svg>
