<svg width="20" height="20" viewBox="0 0 20 20" fill="none" xmlns="http://www.w3.org/2000/svg">
<path d="M4.35833 8.86666C4.42829 8.95104 4.51421 9.02079 4.61116 9.07192C4.70812 9.12304 4.81421 9.15454 4.92336 9.1646C5.0325 9.17467 5.14256 9.1631 5.24723 9.13056C5.3519 9.09803 5.44913 9.04516 5.53333 8.97499L9.16667 5.94999V15.8333C9.16667 16.0543 9.25446 16.2663 9.41074 16.4226C9.56702 16.5789 9.77899 16.6667 10 16.6667C10.221 16.6667 10.433 16.5789 10.5893 16.4226C10.7455 16.2663 10.8333 16.0543 10.8333 15.8333V5.94999L14.4667 8.97499C14.5509 9.04503 14.6482 9.09778 14.7528 9.13024C14.8575 9.1627 14.9675 9.17423 15.0766 9.16418C15.1857 9.15412 15.2918 9.12266 15.3887 9.07162C15.4857 9.02057 15.5716 8.95092 15.6417 8.86666C15.7117 8.78239 15.7645 8.68516 15.7969 8.5805C15.8294 8.47585 15.8409 8.36583 15.8309 8.25672C15.8208 8.14761 15.7893 8.04155 15.7383 7.9446C15.6872 7.84765 15.6176 7.7617 15.5333 7.69166L10.5333 3.52499L10.4083 3.44999L10.3 3.39166C10.1069 3.31716 9.89306 3.31716 9.7 3.39166L9.59167 3.44999L9.46667 3.52499L4.46667 7.69166C4.38228 7.76161 4.31253 7.84753 4.26141 7.94449C4.21028 8.04144 4.17878 8.14753 4.16872 8.25668C4.15866 8.36583 4.17022 8.47589 4.20276 8.58056C4.2353 8.68523 4.28816 8.78245 4.35833 8.86666Z" fill="#0A9B21"/>
</svg>
