<svg width="21" height="21" viewBox="0 0 21 21" fill="none" xmlns="http://www.w3.org/2000/svg">
<path d="M16.975 6.4225L14.5775 4.025C14.2646 3.73108 13.8546 3.56244 13.4254 3.55114C12.9963 3.53985 12.5779 3.6867 12.25 3.96375L4.37502 11.8387C4.09219 12.124 3.91608 12.4978 3.87627 12.8975L3.50002 16.5462C3.48823 16.6744 3.50486 16.8036 3.54872 16.9246C3.59258 17.0456 3.66259 17.1554 3.75377 17.2462C3.83553 17.3273 3.93249 17.3915 4.0391 17.435C4.14571 17.4786 4.25986 17.5007 4.37502 17.5H4.45377L8.10252 17.1675C8.50221 17.1277 8.87605 16.9516 9.16127 16.6687L17.0363 8.79375C17.3419 8.47084 17.5071 8.03994 17.4956 7.59547C17.4841 7.15099 17.2969 6.72919 16.975 6.4225ZM7.94502 15.4175L5.32002 15.6625L5.55627 13.0375L10.5 8.155L12.8625 10.5175L7.94502 15.4175ZM14 9.345L11.655 7L13.3613 5.25L15.75 7.63875L14 9.345Z" fill="#231F20"/>
</svg>
