<svg width="17" height="12" viewBox="0 0 17 12" fill="none" xmlns="http://www.w3.org/2000/svg">
<path d="M16.5616 5.42022C16.0283 4.49522 13.095 -0.146445 8.11165 0.00355507C3.50331 0.120222 0.836646 4.17022 0.111646 5.42022C0.0385053 5.5469 0 5.69061 0 5.83689C0 5.98317 0.0385053 6.12687 0.111646 6.25356C0.636646 7.16189 3.44498 11.6702 8.35331 11.6702H8.56165C13.17 11.5536 15.845 7.50355 16.5616 6.25356C16.6348 6.12687 16.6733 5.98317 16.6733 5.83689C16.6733 5.69061 16.6348 5.5469 16.5616 5.42022ZM8.51998 10.0036C4.92831 10.0869 2.58665 7.01189 1.85331 5.83689C2.68665 4.49522 4.86165 1.75355 8.19498 1.67022C11.77 1.57855 14.12 4.66189 14.8616 5.83689C14.0033 7.17856 11.8533 9.92022 8.51998 10.0036Z" fill="#231F20"/>
<path d="M8.33665 2.92023C7.75979 2.92023 7.19588 3.09129 6.71624 3.41177C6.23659 3.73226 5.86276 4.18778 5.642 4.72073C5.42125 5.25368 5.36349 5.84013 5.47603 6.40591C5.58857 6.97169 5.86635 7.49138 6.27426 7.89929C6.68216 8.30719 7.20186 8.58498 7.76764 8.69752C8.33342 8.81006 8.91986 8.7523 9.45281 8.53154C9.98576 8.31079 10.4413 7.93695 10.7618 7.45731C11.0823 6.97766 11.2533 6.41376 11.2533 5.83689C11.2533 5.06335 10.946 4.32148 10.399 3.7745C9.85206 3.22752 9.1102 2.92023 8.33665 2.92023ZM8.33665 7.08689C8.08942 7.08689 7.84775 7.01358 7.64219 6.87623C7.43663 6.73888 7.27641 6.54366 7.1818 6.31525C7.08719 6.08684 7.06244 5.83551 7.11067 5.59303C7.1589 5.35055 7.27795 5.12783 7.45277 4.95301C7.62758 4.77819 7.85031 4.65914 8.09279 4.61091C8.33526 4.56268 8.5866 4.58743 8.81501 4.68204C9.04341 4.77665 9.23864 4.93687 9.37599 5.14243C9.51334 5.34799 9.58665 5.58967 9.58665 5.83689C9.58665 6.16841 9.45496 6.48636 9.22053 6.72078C8.98611 6.9552 8.66817 7.08689 8.33665 7.08689Z" fill="#231F20"/>
</svg>
