<svg width="20" height="20" viewBox="0 0 20 20" fill="none" xmlns="http://www.w3.org/2000/svg">
<path d="M4.35833 8.86669C4.42828 8.95107 4.5142 9.02082 4.61116 9.07195C4.70811 9.12308 4.8142 9.15457 4.92335 9.16464C5.0325 9.1747 5.14256 9.16313 5.24723 9.13059C5.3519 9.09806 5.44912 9.04519 5.53333 8.97502L9.16666 5.95002V15.8334C9.16666 16.0544 9.25446 16.2663 9.41074 16.4226C9.56702 16.5789 9.77898 16.6667 9.99999 16.6667C10.221 16.6667 10.433 16.5789 10.5892 16.4226C10.7455 16.2663 10.8333 16.0544 10.8333 15.8334V5.95002L14.4667 8.97502C14.5509 9.04506 14.6482 9.09782 14.7528 9.13028C14.8575 9.16274 14.9675 9.17427 15.0766 9.16421C15.1857 9.15415 15.2918 9.12269 15.3887 9.07165C15.4857 9.0206 15.5716 8.95095 15.6417 8.86669C15.7117 8.78242 15.7645 8.68519 15.7969 8.58054C15.8294 8.47588 15.8409 8.36586 15.8308 8.25675C15.8208 8.14764 15.7893 8.04158 15.7383 7.94463C15.6872 7.84768 15.6176 7.76173 15.5333 7.69169L10.5333 3.52502L10.4083 3.45002L10.3 3.39169C10.1069 3.31719 9.89306 3.31719 9.69999 3.39169L9.59166 3.45002L9.46666 3.52502L4.46666 7.69169C4.38228 7.76165 4.31252 7.84756 4.2614 7.94452C4.21027 8.04147 4.17877 8.14756 4.16871 8.25671C4.15865 8.36586 4.17022 8.47592 4.20275 8.58059C4.23529 8.68526 4.28816 8.78248 4.35833 8.86669Z" fill="#0A9B21"/>
</svg>
