<svg width="25" height="25" viewBox="0 0 25 25" fill="none" xmlns="http://www.w3.org/2000/svg">
<mask id="mask0_35_13" style="mask-type:alpha" maskUnits="userSpaceOnUse" x="0" y="0" width="25" height="25">
<rect width="25" height="25" fill="#D9D9D9"/>
</mask>
<g mask="url(#mask0_35_13)">
<path d="M4.16669 19.7917V17.7083H6.25002V10.4167C6.25002 8.97571 6.68405 7.69532 7.5521 6.57553C8.42016 5.45574 9.54863 4.72223 10.9375 4.37501V3.64584C10.9375 3.21182 11.0894 2.84289 11.3932 2.53907C11.6971 2.23525 12.066 2.08334 12.5 2.08334C12.934 2.08334 13.303 2.23525 13.6068 2.53907C13.9106 2.84289 14.0625 3.21182 14.0625 3.64584V4.37501C15.4514 4.72223 16.5799 5.45574 17.4479 6.57553C18.316 7.69532 18.75 8.97571 18.75 10.4167V17.7083H20.8334V19.7917H4.16669ZM12.5 22.9167C11.9271 22.9167 11.4367 22.7127 11.0287 22.3047C10.6207 21.8967 10.4167 21.4063 10.4167 20.8333H14.5834C14.5834 21.4063 14.3794 21.8967 13.9714 22.3047C13.5634 22.7127 13.0729 22.9167 12.5 22.9167ZM8.33335 17.7083H16.6667V10.4167C16.6667 9.27084 16.2587 8.28994 15.4427 7.47397C14.6268 6.658 13.6459 6.25001 12.5 6.25001C11.3542 6.25001 10.3733 6.658 9.55731 7.47397C8.74134 8.28994 8.33335 9.27084 8.33335 10.4167V17.7083Z" fill="white"/>
</g>
</svg>
