<svg width="30" height="30" viewBox="0 0 30 30" fill="none" xmlns="http://www.w3.org/2000/svg">
<path d="M25.525 12.725L15.8875 2.875C15.7713 2.75784 15.633 2.66484 15.4807 2.60138C15.3284 2.53792 15.165 2.50525 15 2.50525C14.8349 2.50525 14.6716 2.53792 14.5192 2.60138C14.3669 2.66484 14.2287 2.75784 14.1125 2.875L4.47496 12.7375C4.24176 12.9726 4.05758 13.2517 3.93312 13.5585C3.80866 13.8654 3.7464 14.1939 3.74996 14.525V25C3.74899 25.6399 3.99343 26.2558 4.43293 26.7209C4.87243 27.186 5.47354 27.4648 6.11246 27.5H23.8875C24.5264 27.4648 25.1275 27.186 25.567 26.7209C26.0065 26.2558 26.2509 25.6399 26.25 25V14.525C26.251 13.8537 25.991 13.2082 25.525 12.725ZM12.5 25V17.5H17.5V25H12.5ZM23.75 25H20V16.25C20 15.9185 19.8683 15.6005 19.6338 15.3661C19.3994 15.1317 19.0815 15 18.75 15H11.25C10.9184 15 10.6005 15.1317 10.3661 15.3661C10.1317 15.6005 9.99996 15.9185 9.99996 16.25V25H6.24996V14.475L15 5.5375L23.75 14.525V25Z" fill="#292929"/>
</svg>
