<svg width="25" height="25" viewBox="0 0 25 25" fill="none" xmlns="http://www.w3.org/2000/svg">
<path d="M16.6667 11.4584H10.7709L12.073 10.0938C12.2636 9.89348 12.3669 9.62566 12.36 9.34924C12.3532 9.07282 12.2368 8.81044 12.0365 8.61981C11.8362 8.42919 11.5684 8.32594 11.292 8.33278C11.0156 8.33961 10.7532 8.45598 10.5626 8.65627L7.58341 11.7813C7.54864 11.8239 7.51729 11.8691 7.48966 11.9167C7.44158 11.9764 7.40293 12.0432 7.37508 12.1146C7.33846 12.2078 7.31735 12.3063 7.31258 12.4063L7.29175 12.5C7.29339 12.6361 7.32171 12.7706 7.37508 12.8959C7.42586 13.02 7.50013 13.1332 7.59383 13.2292L10.7188 16.3542C10.8157 16.4518 10.9309 16.5293 11.0578 16.5822C11.1848 16.6351 11.3209 16.6623 11.4584 16.6623C11.5959 16.6623 11.7321 16.6351 11.859 16.5822C11.986 16.5293 12.1012 16.4518 12.198 16.3542C12.2956 16.2574 12.3731 16.1421 12.426 16.0152C12.4789 15.8883 12.5061 15.7521 12.5061 15.6146C12.5061 15.4771 12.4789 15.3409 12.426 15.214C12.3731 15.0871 12.2956 14.9719 12.198 14.875L10.8438 13.5417H16.6667C16.943 13.5417 17.208 13.4319 17.4033 13.2366C17.5987 13.0412 17.7084 12.7763 17.7084 12.5C17.7084 12.2238 17.5987 11.9588 17.4033 11.7635C17.208 11.5681 16.943 11.4584 16.6667 11.4584Z" fill="white"/>
<path d="M12.5 2.08331C10.4398 2.08331 8.42587 2.69424 6.71286 3.83884C4.99984 4.98344 3.66471 6.6103 2.8763 8.51369C2.08789 10.4171 1.8816 12.5115 2.28353 14.5322C2.68546 16.5528 3.67755 18.4089 5.13435 19.8657C6.59115 21.3225 8.44722 22.3146 10.4679 22.7165C12.4885 23.1184 14.5829 22.9121 16.4863 22.1237C18.3897 21.3353 20.0166 20.0002 21.1612 18.2872C22.3058 16.5742 22.9167 14.5602 22.9167 12.5C22.9167 11.132 22.6473 9.7775 22.1238 8.51369C21.6003 7.24989 20.833 6.10156 19.8657 5.13428C18.8985 4.16701 17.7501 3.39972 16.4863 2.87623C15.2225 2.35275 13.868 2.08331 12.5 2.08331ZM12.5 20.8333C10.8519 20.8333 9.2407 20.3446 7.87029 19.4289C6.49988 18.5132 5.43178 17.2117 4.80105 15.689C4.17032 14.1663 4.00529 12.4907 4.32684 10.8742C4.64838 9.25772 5.44205 7.77286 6.60749 6.60742C7.77293 5.44199 9.25779 4.64831 10.8743 4.32677C12.4908 4.00523 14.1664 4.17025 15.6891 4.80098C17.2118 5.43171 18.5133 6.49982 19.429 7.87023C20.3446 9.24064 20.8334 10.8518 20.8334 12.5C20.8334 14.7101 19.9554 16.8297 18.3926 18.3925C16.8298 19.9553 14.7102 20.8333 12.5 20.8333Z" fill="white"/>
</svg>
