<svg width="12" height="14" viewBox="0 0 12 14" fill="none" xmlns="http://www.w3.org/2000/svg">
<path d="M11.476 7.8C11.4061 7.71562 11.3202 7.64587 11.2232 7.59474C11.1263 7.54361 11.0202 7.51212 10.911 7.50205C10.8019 7.49199 10.6918 7.50356 10.5871 7.53609C10.4825 7.56863 10.3852 7.6215 10.301 7.69167L6.66771 10.7167V0.833333C6.66771 0.61232 6.57991 0.400358 6.42363 0.244078C6.26735 0.0877975 6.05539 0 5.83437 0C5.61336 0 5.4014 0.0877975 5.24512 0.244078C5.08884 0.400358 5.00104 0.61232 5.00104 0.833333V10.7167L1.36771 7.69167C1.28344 7.62163 1.18621 7.56887 1.08156 7.53641C0.976902 7.50395 0.86688 7.49242 0.757771 7.50248C0.648663 7.51254 0.542603 7.54399 0.44565 7.59504C0.348696 7.64609 0.262746 7.71573 0.192708 7.8C0.12267 7.88426 0.0699143 7.9815 0.0374541 8.08615C0.00499384 8.19081 -0.00653577 8.30083 0.00352391 8.40994C0.0135836 8.51904 0.0450355 8.6251 0.0960836 8.72206C0.147132 8.81901 0.216776 8.90496 0.301041 8.975L5.30104 13.1417L5.42604 13.2167L5.53437 13.275C5.72744 13.3495 5.94131 13.3495 6.13437 13.275L6.24271 13.2167L6.36771 13.1417L11.3677 8.975C11.4521 8.90504 11.5218 8.81913 11.573 8.72217C11.6241 8.62521 11.6556 8.51912 11.6657 8.40998C11.6757 8.30083 11.6641 8.19077 11.6316 8.0861C11.5991 7.98143 11.5462 7.88421 11.476 7.8Z" fill="#BE0606"/>
</svg>
