<svg width="18" height="18" viewBox="0 0 18 18" fill="none" xmlns="http://www.w3.org/2000/svg">
<path d="M18 9H12.6L10.8 12.375H7.2L5.4 9H0" stroke="white" stroke-width="2" stroke-linecap="round" stroke-linejoin="round"/>
<path d="M3.105 1.24875L0 9V15.75C0 16.3467 0.189642 16.919 0.527208 17.341C0.864773 17.7629 1.32261 18 1.8 18H16.2C16.6774 18 17.1352 17.7629 17.4728 17.341C17.8104 16.919 18 16.3467 18 15.75V9L14.895 1.24875C14.746 0.873886 14.5163 0.558417 14.2317 0.337815C13.9471 0.117212 13.6189 0.000222123 13.284 0H4.716C4.38112 0.000222123 4.05294 0.117212 3.76834 0.337815C3.48374 0.558417 3.25402 0.873886 3.105 1.24875Z" stroke="white" stroke-width="2" stroke-linecap="round" stroke-linejoin="round"/>
</svg>
