<svg width="18" height="18" viewBox="0 0 18 18" fill="none" xmlns="http://www.w3.org/2000/svg">
<path d="M16.2 4H1.8C0.805887 4 0 4.89543 0 6V16C0 17.1046 0.805887 18 1.8 18H16.2C17.1941 18 18 17.1046 18 16V6C18 4.89543 17.1941 4 16.2 4Z" stroke="#FFFCFC" stroke-width="2" stroke-linecap="round" stroke-linejoin="round"/>
<path d="M12.6 18V2C12.6 1.46957 12.4104 0.960859 12.0728 0.585786C11.7353 0.210714 11.2774 0 10.8 0H7.20002C6.72263 0 6.2648 0.210714 5.92723 0.585786C5.58967 0.960859 5.40002 1.46957 5.40002 2V18" stroke="#FFFCFC" stroke-width="2" stroke-linecap="round" stroke-linejoin="round"/>
</svg>
