<svg width="520" height="101" viewBox="0 0 520 101" fill="none" xmlns="http://www.w3.org/2000/svg">
<path d="M0 57.6237C4.79815 64.7903 12.3253 78.5309 25.6401 72.9309C42.2837 65.9309 51.2803 69.1236 57.128 83.6236C62.9758 98.1236 71.9723 100.624 81.8685 94.1236C91.7647 87.6236 88.1661 73.9309 103.46 72.9309C118.754 71.9309 116.055 80.9309 136.747 43.4309C157.439 5.93088 174.533 34.4309 177.232 38.9309C189.112 58.7381 198.824 66.1237 212.318 57.6237C225.813 49.1236 248.304 51.1236 254.152 67.1236C258.83 79.9237 264.498 85.8449 277.543 81.3449C283.841 79.1725 285.64 64.8449 302.734 64.8449C310.381 64.8449 307.682 34.4309 319.827 7.43086C331.972 -19.5691 345.917 35.4309 349.516 38.9309C353.114 42.4309 360.761 44.9309 379.204 38.9309C397.647 32.9309 389.321 72.4309 405.294 72.4309C423.287 72.4309 413.391 105.431 443.529 100.431C467.64 96.4309 461.073 79.1237 480.865 89.1236C488.512 99.6236 498.498 97.1236 506.055 89.1236C513.612 81.1237 518.501 82.1237 520 83.6236" stroke="#0A9B21" stroke-width="2"/>
</svg>
