<svg width="320" height="83" viewBox="0 0 320 83" fill="none" xmlns="http://www.w3.org/2000/svg">
<path d="M44.7205 35.8464C14.8892 25.6046 16.9779 41.5418 0 48V83H320V0C311.346 8.75989 298.787 12.4406 286.773 9.73832L285.217 9.38835C262 2.13372 265.08 33.4036 249.441 30.2417C213.559 22.987 211.87 43.101 185.839 43.101C159.807 43.101 154.037 13.6558 127.702 30.2417C113.874 38.9505 105.075 21.6787 96.3975 26.5152C87.7202 33.343 74.5518 46.0882 44.7205 35.8464Z" fill="url(#paint0_linear_10_26)"/>
<path d="M2 48C18.8453 41.5418 16.7729 25.6046 46.3711 35.8464C75.9693 46.0882 89.0349 33.343 97.6444 26.5152C106.254 21.6787 114.984 38.9505 128.704 30.2417C154.834 13.6558 160.558 43.101 186.387 43.101C212.215 43.101 213.891 22.987 249.492 30.2417C265.009 33.4036 261.953 2.13372 284.989 9.38835L286.464 9.72263C298.417 12.4324 310.92 8.7526 319.5 0" stroke="#BE0606" stroke-width="2"/>
<defs>
<linearGradient id="paint0_linear_10_26" x1="160" y1="0" x2="160" y2="83" gradientUnits="userSpaceOnUse">
<stop stop-color="#BE0606" stop-opacity="0.33"/>
<stop offset="1" stop-color="#BE0606" stop-opacity="0"/>
</linearGradient>
</defs>
</svg>
