<svg width="20" height="20" viewBox="0 0 20 20" fill="none" xmlns="http://www.w3.org/2000/svg">
<mask id="mask0_27_86" style="mask-type:alpha" maskUnits="userSpaceOnUse" x="0" y="0" width="20" height="20">
<rect width="20" height="20" fill="#D9D9D9"/>
</mask>
<g mask="url(#mask0_27_86)">
<path d="M13.3333 6.66667V4.16667H6.66666V6.66667H4.99999V2.5H15V6.66667H13.3333ZM15 10.4167C15.2361 10.4167 15.434 10.3368 15.5937 10.1771C15.7535 10.0174 15.8333 9.81944 15.8333 9.58333C15.8333 9.34722 15.7535 9.14931 15.5937 8.98958C15.434 8.82986 15.2361 8.75 15 8.75C14.7639 8.75 14.566 8.82986 14.4062 8.98958C14.2465 9.14931 14.1667 9.34722 14.1667 9.58333C14.1667 9.81944 14.2465 10.0174 14.4062 10.1771C14.566 10.3368 14.7639 10.4167 15 10.4167ZM13.3333 15.8333V12.5H6.66666V15.8333H13.3333ZM15 17.5H4.99999V14.1667H1.66666V9.16667C1.66666 8.45833 1.90971 7.86458 2.39582 7.38542C2.88193 6.90625 3.47221 6.66667 4.16666 6.66667H15.8333C16.5417 6.66667 17.1354 6.90625 17.6146 7.38542C18.0937 7.86458 18.3333 8.45833 18.3333 9.16667V14.1667H15V17.5ZM16.6667 12.5V9.16667C16.6667 8.93056 16.5868 8.73264 16.4271 8.57292C16.2674 8.41319 16.0694 8.33333 15.8333 8.33333H4.16666C3.93055 8.33333 3.73263 8.41319 3.57291 8.57292C3.41318 8.73264 3.33332 8.93056 3.33332 9.16667V12.5H4.99999V10.8333H15V12.5H16.6667Z" fill="#1C1B1F" fill-opacity="0.5"/>
</g>
</svg>
