<svg width="20" height="20" viewBox="0 0 20 20" fill="none" xmlns="http://www.w3.org/2000/svg">
<path d="M15.8333 15H4.16668C3.70644 15 3.33334 15.3731 3.33334 15.8333C3.33334 16.2936 3.70644 16.6667 4.16668 16.6667H15.8333C16.2936 16.6667 16.6667 16.2936 16.6667 15.8333C16.6667 15.3731 16.2936 15 15.8333 15Z" fill="#231F20"/>
<path d="M3.33334 14.1667V15.8333C3.33334 16.2936 3.70644 16.6667 4.16668 16.6667C4.62691 16.6667 5.00001 16.2936 5.00001 15.8333V14.1667C5.00001 13.7064 4.62691 13.3333 4.16668 13.3333C3.70644 13.3333 3.33334 13.7064 3.33334 14.1667Z" fill="#231F20"/>
<path d="M15 14.1667V15.8333C15 16.2936 15.3731 16.6667 15.8333 16.6667C16.2936 16.6667 16.6667 16.2936 16.6667 15.8333V14.1667C16.6667 13.7064 16.2936 13.3333 15.8333 13.3333C15.3731 13.3333 15 13.7064 15 14.1667Z" fill="#231F20"/>
<path d="M10 12.5C9.82723 12.5013 9.65833 12.4489 9.51667 12.35L6.18333 10C6.00368 9.87257 5.88179 9.67918 5.84431 9.46212C5.80683 9.24506 5.85681 9.02199 5.98333 8.84168C6.04649 8.75155 6.12687 8.67483 6.21984 8.61593C6.31281 8.55704 6.41652 8.51715 6.52499 8.49855C6.63346 8.47996 6.74454 8.48303 6.85181 8.5076C6.95909 8.53216 7.06043 8.57773 7.15 8.64168L10 10.6333L12.8333 8.50001C13.0101 8.3674 13.2324 8.31047 13.4512 8.34172C13.67 8.37298 13.8674 8.48987 14 8.66668C14.1326 8.84349 14.1895 9.06574 14.1583 9.28453C14.127 9.50332 14.0101 9.70074 13.8333 9.83335L10.5 12.3333C10.3558 12.4415 10.1803 12.5 10 12.5Z" fill="#231F20"/>
<path d="M10 10.8333C9.77901 10.8333 9.56705 10.7455 9.41076 10.5893C9.25448 10.433 9.16669 10.221 9.16669 10V3.33333C9.16669 3.11232 9.25448 2.90036 9.41076 2.74408C9.56705 2.5878 9.77901 2.5 10 2.5C10.221 2.5 10.433 2.5878 10.5893 2.74408C10.7456 2.90036 10.8334 3.11232 10.8334 3.33333V10C10.8334 10.221 10.7456 10.433 10.5893 10.5893C10.433 10.7455 10.221 10.8333 10 10.8333Z" fill="#231F20"/>
</svg>
