<svg width="22" height="16" viewBox="0 0 22 16" fill="none" xmlns="http://www.w3.org/2000/svg">
<path d="M4.79167 15.3333C3.99306 15.3333 3.31424 15.0538 2.75521 14.4948C2.19618 13.9358 1.91667 13.2569 1.91667 12.4583H0V1.91667C0 1.38958 0.187674 0.938368 0.563021 0.563021C0.938368 0.187674 1.38958 0 1.91667 0H15.3333V3.83333H18.2083L21.0833 7.66667V12.4583H19.1667C19.1667 13.2569 18.8872 13.9358 18.3281 14.4948C17.7691 15.0538 17.0903 15.3333 16.2917 15.3333C15.4931 15.3333 14.8142 15.0538 14.2552 14.4948C13.6962 13.9358 13.4167 13.2569 13.4167 12.4583H7.66667C7.66667 13.2569 7.38715 13.9358 6.82813 14.4948C6.2691 15.0538 5.59028 15.3333 4.79167 15.3333ZM4.79167 13.4167C5.06319 13.4167 5.2908 13.3248 5.47448 13.1411C5.65816 12.9575 5.75 12.7299 5.75 12.4583C5.75 12.1868 5.65816 11.9592 5.47448 11.7755C5.2908 11.5918 5.06319 11.5 4.79167 11.5C4.52014 11.5 4.29253 11.5918 4.10885 11.7755C3.92517 11.9592 3.83333 12.1868 3.83333 12.4583C3.83333 12.7299 3.92517 12.9575 4.10885 13.1411C4.29253 13.3248 4.52014 13.4167 4.79167 13.4167ZM1.91667 10.5417H2.68333C2.95486 10.2542 3.26632 10.0226 3.61771 9.84688C3.9691 9.67118 4.36042 9.58333 4.79167 9.58333C5.22292 9.58333 5.61424 9.67118 5.96563 9.84688C6.31701 10.0226 6.62847 10.2542 6.9 10.5417H13.4167V1.91667H1.91667V10.5417ZM16.2917 13.4167C16.5632 13.4167 16.7908 13.3248 16.9745 13.1411C17.1582 12.9575 17.25 12.7299 17.25 12.4583C17.25 12.1868 17.1582 11.9592 16.9745 11.7755C16.7908 11.5918 16.5632 11.5 16.2917 11.5C16.0201 11.5 15.7925 11.5918 15.6089 11.7755C15.4252 11.9592 15.3333 12.1868 15.3333 12.4583C15.3333 12.7299 15.4252 12.9575 15.6089 13.1411C15.7925 13.3248 16.0201 13.4167 16.2917 13.4167ZM15.3333 8.625H19.4062L17.25 5.75H15.3333V8.625Z" fill="white"/>
</svg>
