<svg width="226" height="71" viewBox="0 0 226 71" fill="none" xmlns="http://www.w3.org/2000/svg">
<path d="M32.7902 23.5669C11.4009 11.5669 2.01786 33.0669 0 43.0669V70.0669H226V2.06689C209.353 -6.43311 196.856 14.2716 185.643 10.5669C159.915 2.0669 160.924 28.0669 142.259 28.0669C123.594 28.0669 126.116 19.0669 111.991 10.5669C100.691 3.7669 82.9003 13.4002 76.6786 19.0669C70.4568 27.0669 54.1795 35.5669 32.7902 23.5669Z" fill="url(#paint0_linear_5_15)"/>
<path d="M1 43.0669C3 33.0669 12.3 11.5669 33.5 23.5669C54.7 35.5669 70.8333 27.0669 77 19.0669C83.1667 13.4002 100.8 3.7669 112 10.5669C126 19.0669 123.5 28.0669 142 28.0669C160.5 28.0669 159.5 2.0669 185 10.5669C196.114 14.2716 208.5 -6.43311 225 2.06689" stroke="#0A9B21" stroke-width="2"/>
<defs>
<linearGradient id="paint0_linear_5_15" x1="113" y1="0" x2="113" y2="70.0669" gradientUnits="userSpaceOnUse">
<stop stop-color="#0A9B21" stop-opacity="0.44"/>
<stop offset="1" stop-color="#0A9B21" stop-opacity="0"/>
</linearGradient>
</defs>
</svg>
