<svg width="521" height="151" viewBox="0 0 521 151" fill="none" xmlns="http://www.w3.org/2000/svg">
<path d="M29.6886 50.8402C9.89619 51.6402 1.64937 69.5069 0 78.3402V151H520V26.8402C517.901 29.8402 511.093 34.0402 500.657 26.8402C487.612 17.8402 493.46 0.340237 466.92 16.8402C440.381 33.3402 430.035 3.34024 421.488 0.340237C412.941 -2.65976 419.689 14.8402 393.149 26.8402C366.609 38.8402 370.657 26.8402 353.564 11.3402C336.471 -4.15976 342.318 -6.65976 313.979 26.8402C285.64 60.3402 286.99 41.3402 264.948 35.8402C242.907 30.3403 255.952 42.3402 237.958 41.3402C219.965 40.3402 222.215 28.3402 216.817 22.3402C212.498 17.5403 198.824 20.3403 192.526 22.3402C186.828 26.8402 172.824 35.8402 162.388 35.8402C149.343 35.8402 149.792 35.8402 135.398 22.3402C121.003 8.84025 118.304 29.8402 110.657 35.8402C103.01 41.8402 110.694 53.8502 101.211 59.3402C79.6194 71.8402 89.0657 58.8402 68.3737 66.3402C47.6817 73.8402 54.4291 49.8402 29.6886 50.8402Z" fill="url(#paint0_linear_20_6)"/>
<path d="M0.5 78.5C2.14937 69.6667 10.3962 51.8 30.1886 51C54.9291 50 48.1817 74 68.8737 66.5C89.5657 59 80.1194 72 101.711 59.5C111.194 54.01 103.51 42 111.157 36C118.804 30 121.503 9.00001 135.898 22.5C150.292 36 149.843 36 162.888 36C173.324 36 187.328 27 193.026 22.5C199.324 20.5 212.998 17.7 217.317 22.5C222.715 28.5 220.465 40.5 238.458 41.5C256.452 42.5 243.407 30.5 265.448 36C287.49 41.5 286.14 60.5 314.479 27C342.818 -6.5 336.971 -4 354.064 11.5C371.157 27 367.109 39 393.649 27C420.189 15 413.441 -2.5 421.988 0.499996C430.535 3.5 440.881 33.5 467.42 17C493.96 0.499996 488.112 18 501.157 27C511.593 34.2 518.401 30 520.5 27" stroke="#0C1CAB" stroke-width="2"/>
<defs>
<linearGradient id="paint0_linear_20_6" x1="260" y1="0" x2="260" y2="151" gradientUnits="userSpaceOnUse">
<stop stop-color="#A3A6FF" stop-opacity="0.29"/>
<stop offset="1" stop-color="#D5D6FF" stop-opacity="0"/>
</linearGradient>
</defs>
</svg>
