<svg width="20" height="20" viewBox="0 0 20 20" fill="none" xmlns="http://www.w3.org/2000/svg">
<path d="M15.6417 11.1333C15.5717 11.0489 15.4858 10.9792 15.3888 10.9281C15.2919 10.8769 15.1858 10.8454 15.0766 10.8354C14.9675 10.8253 14.8574 10.8369 14.7528 10.8694C14.6481 10.902 14.5509 10.9548 14.4667 11.025L10.8333 14.05V4.16666C10.8333 3.94565 10.7455 3.73369 10.5892 3.57741C10.433 3.42113 10.221 3.33333 9.99999 3.33333C9.77898 3.33333 9.56702 3.42113 9.41074 3.57741C9.25446 3.73369 9.16666 3.94565 9.16666 4.16666V14.05L5.53333 11.025C5.44906 10.955 5.35183 10.9022 5.24717 10.8697C5.14252 10.8373 5.0325 10.8258 4.92339 10.8358C4.81428 10.8459 4.70822 10.8773 4.61127 10.9284C4.51431 10.9794 4.42837 11.0491 4.35833 11.1333C4.28829 11.2176 4.23553 11.3148 4.20307 11.4195C4.17061 11.5241 4.15908 11.6342 4.16914 11.7433C4.1792 11.8524 4.21065 11.9584 4.2617 12.0554C4.31275 12.1523 4.3824 12.2383 4.46666 12.3083L9.46666 16.475L9.59166 16.55L9.69999 16.6083C9.89306 16.6828 10.1069 16.6828 10.3 16.6083L10.4083 16.55L10.5333 16.475L15.5333 12.3083C15.6177 12.2384 15.6875 12.1525 15.7386 12.0555C15.7897 11.9585 15.8212 11.8525 15.8313 11.7433C15.8413 11.6342 15.8298 11.5241 15.7972 11.4194C15.7647 11.3148 15.7118 11.2175 15.6417 11.1333Z" fill="#ED4C4C"/>
</svg>
