<svg width="139" height="141" viewBox="0 0 139 141" fill="none" xmlns="http://www.w3.org/2000/svg">
<g filter="url(#filter0_d_26_18)">
<mask id="path-1-inside-1_26_18" fill="white">
<path d="M115.23 19.7703C122.899 27.4399 128.608 36.8449 131.872 47.1887C135.135 57.5325 135.858 68.5105 133.979 79.193L114.639 75.7912C115.971 68.2165 115.458 60.4323 113.144 53.0978C110.83 45.7633 106.782 39.0945 101.344 33.6561L115.23 19.7703Z"/>
</mask>
<path d="M115.23 19.7703C122.899 27.4399 128.608 36.8449 131.872 47.1887C135.135 57.5325 135.858 68.5105 133.979 79.193L114.639 75.7912C115.971 68.2165 115.458 60.4323 113.144 53.0978C110.83 45.7633 106.782 39.0945 101.344 33.6561L115.23 19.7703Z" fill="#D9D9D9"/>
<path d="M115.23 19.7703C122.899 27.4399 128.608 36.8449 131.872 47.1887C135.135 57.5325 135.858 68.5105 133.979 79.193L114.639 75.7912C115.971 68.2165 115.458 60.4323 113.144 53.0978C110.83 45.7633 106.782 39.0945 101.344 33.6561L115.23 19.7703Z" stroke="black" stroke-opacity="0.2" stroke-width="2" mask="url(#path-1-inside-1_26_18)"/>
</g>
<g filter="url(#filter1_d_26_18)">
<mask id="path-2-inside-2_26_18" fill="white">
<path d="M139 67.5C139 84.1838 132.821 100.276 121.656 112.673C110.491 125.07 95.1298 132.893 78.5369 134.632L75.5606 106.238C85.1354 105.235 93.9993 100.721 100.442 93.567C106.885 86.4135 110.451 77.1273 110.451 67.5H139Z"/>
</mask>
<path d="M139 67.5C139 84.1838 132.821 100.276 121.656 112.673C110.491 125.07 95.1298 132.893 78.5369 134.632L75.5606 106.238C85.1354 105.235 93.9993 100.721 100.442 93.567C106.885 86.4135 110.451 77.1273 110.451 67.5H139Z" fill="#8B8989"/>
<path d="M139 67.5C139 84.1838 132.821 100.276 121.656 112.673C110.491 125.07 95.1298 132.893 78.5369 134.632L75.5606 106.238C85.1354 105.235 93.9993 100.721 100.442 93.567C106.885 86.4135 110.451 77.1273 110.451 67.5H139Z" stroke="black" stroke-opacity="0.2" stroke-width="2" mask="url(#path-2-inside-2_26_18)"/>
</g>
<g filter="url(#filter2_d_26_18)">
<mask id="path-3-inside-3_26_18" fill="white">
<path d="M112.618 127.031C104.072 133.595 94.0786 138.018 83.4738 139.93C72.8689 141.841 61.9606 141.186 51.6608 138.019C41.361 134.852 31.9691 129.264 24.2705 121.725C16.5719 114.185 10.7902 104.912 7.40903 94.6801C4.02782 84.4486 3.14531 73.5562 4.83529 62.9138C6.52527 52.2715 10.7386 42.1883 17.123 33.5075C23.5075 24.8268 31.8774 17.8007 41.533 13.0167C51.1886 8.23276 61.8492 5.83 72.6235 6.00935L71.9374 47.2256C67.7429 47.1557 63.5927 48.0912 59.8337 49.9536C56.0747 51.816 52.8163 54.5513 50.3308 57.9307C47.8453 61.3102 46.205 65.2356 45.5471 69.3788C44.8892 73.5219 45.2328 77.7623 46.5491 81.7455C47.8654 85.7287 50.1162 89.3389 53.1133 92.2741C56.1104 95.2094 59.7667 97.3844 63.7765 98.6174C67.7863 99.8504 72.0329 100.105 76.1615 99.3613C80.29 98.6172 84.1803 96.8954 87.5072 94.34L112.618 127.031Z"/>
</mask>
<path d="M112.618 127.031C104.072 133.595 94.0786 138.018 83.4738 139.93C72.8689 141.841 61.9606 141.186 51.6608 138.019C41.361 134.852 31.9691 129.264 24.2705 121.725C16.5719 114.185 10.7902 104.912 7.40903 94.6801C4.02782 84.4486 3.14531 73.5562 4.83529 62.9138C6.52527 52.2715 10.7386 42.1883 17.123 33.5075C23.5075 24.8268 31.8774 17.8007 41.533 13.0167C51.1886 8.23276 61.8492 5.83 72.6235 6.00935L71.9374 47.2256C67.7429 47.1557 63.5927 48.0912 59.8337 49.9536C56.0747 51.816 52.8163 54.5513 50.3308 57.9307C47.8453 61.3102 46.205 65.2356 45.5471 69.3788C44.8892 73.5219 45.2328 77.7623 46.5491 81.7455C47.8654 85.7287 50.1162 89.3389 53.1133 92.2741C56.1104 95.2094 59.7667 97.3844 63.7765 98.6174C67.7863 99.8504 72.0329 100.105 76.1615 99.3613C80.29 98.6172 84.1803 96.8954 87.5072 94.34L112.618 127.031Z" fill="#483F3F"/>
<path d="M112.618 127.031C104.072 133.595 94.0786 138.018 83.4738 139.93C72.8689 141.841 61.9606 141.186 51.6608 138.019C41.361 134.852 31.9691 129.264 24.2705 121.725C16.5719 114.185 10.7902 104.912 7.40903 94.6801C4.02782 84.4486 3.14531 73.5562 4.83529 62.9138C6.52527 52.2715 10.7386 42.1883 17.123 33.5075C23.5075 24.8268 31.8774 17.8007 41.533 13.0167C51.1886 8.23276 61.8492 5.83 72.6235 6.00935L71.9374 47.2256C67.7429 47.1557 63.5927 48.0912 59.8337 49.9536C56.0747 51.816 52.8163 54.5513 50.3308 57.9307C47.8453 61.3102 46.205 65.2356 45.5471 69.3788C44.8892 73.5219 45.2328 77.7623 46.5491 81.7455C47.8654 85.7287 50.1162 89.3389 53.1133 92.2741C56.1104 95.2094 59.7667 97.3844 63.7765 98.6174C67.7863 99.8504 72.0329 100.105 76.1615 99.3613C80.29 98.6172 84.1803 96.8954 87.5072 94.34L112.618 127.031Z" stroke="black" stroke-width="2" mask="url(#path-3-inside-3_26_18)"/>
</g>
<defs>
<filter id="filter0_d_26_18" x="97.3439" y="19.7703" width="41.6561" height="67.4227" filterUnits="userSpaceOnUse" color-interpolation-filters="sRGB">
<feFlood flood-opacity="0" result="BackgroundImageFix"/>
<feColorMatrix in="SourceAlpha" type="matrix" values="0 0 0 0 0 0 0 0 0 0 0 0 0 0 0 0 0 0 127 0" result="hardAlpha"/>
<feOffset dy="4"/>
<feGaussianBlur stdDeviation="2"/>
<feComposite in2="hardAlpha" operator="out"/>
<feColorMatrix type="matrix" values="0 0 0 0 0 0 0 0 0 0 0 0 0 0 0 0 0 0 0.25 0"/>
<feBlend mode="normal" in2="BackgroundImageFix" result="effect1_dropShadow_26_18"/>
<feBlend mode="normal" in="SourceGraphic" in2="effect1_dropShadow_26_18" result="shape"/>
</filter>
<filter id="filter1_d_26_18" x="71.5606" y="67.5" width="71.4394" height="75.1322" filterUnits="userSpaceOnUse" color-interpolation-filters="sRGB">
<feFlood flood-opacity="0" result="BackgroundImageFix"/>
<feColorMatrix in="SourceAlpha" type="matrix" values="0 0 0 0 0 0 0 0 0 0 0 0 0 0 0 0 0 0 127 0" result="hardAlpha"/>
<feOffset dy="4"/>
<feGaussianBlur stdDeviation="2"/>
<feComposite in2="hardAlpha" operator="out"/>
<feColorMatrix type="matrix" values="0 0 0 0 0 0 0 0 0 0 0 0 0 0 0 0 0 0 0.25 0"/>
<feBlend mode="normal" in2="BackgroundImageFix" result="effect1_dropShadow_26_18"/>
<feBlend mode="normal" in="SourceGraphic" in2="effect1_dropShadow_26_18" result="shape"/>
</filter>
<filter id="filter2_d_26_18" x="-6.00001" y="0" width="128.618" height="155" filterUnits="userSpaceOnUse" color-interpolation-filters="sRGB">
<feFlood flood-opacity="0" result="BackgroundImageFix"/>
<feColorMatrix in="SourceAlpha" type="matrix" values="0 0 0 0 0 0 0 0 0 0 0 0 0 0 0 0 0 0 127 0" result="hardAlpha"/>
<feOffset dy="4"/>
<feGaussianBlur stdDeviation="5"/>
<feComposite in2="hardAlpha" operator="out"/>
<feColorMatrix type="matrix" values="0 0 0 0 0 0 0 0 0 0 0 0 0 0 0 0 0 0 0.25 0"/>
<feBlend mode="normal" in2="BackgroundImageFix" result="effect1_dropShadow_26_18"/>
<feBlend mode="normal" in="SourceGraphic" in2="effect1_dropShadow_26_18" result="shape"/>
</filter>
</defs>
</svg>
