<svg width="37" height="37" viewBox="0 0 37 37" fill="none" xmlns="http://www.w3.org/2000/svg">
<path d="M33.6167 15.4806H32.3749V15.4167H18.4999V21.5833H27.2126C25.9415 25.1731 22.526 27.75 18.4999 27.75C13.3916 27.75 9.24992 23.6083 9.24992 18.5C9.24992 13.3917 13.3916 9.24999 18.4999 9.24999C20.8579 9.24999 23.0031 10.1395 24.6365 11.5926L28.9971 7.23195C26.2437 4.66585 22.5607 3.08333 18.4999 3.08333C9.98606 3.08333 3.08325 9.98614 3.08325 18.5C3.08325 27.0138 9.98606 33.9167 18.4999 33.9167C27.0138 33.9167 33.9166 27.0138 33.9166 18.5C33.9166 17.4663 33.8102 16.4573 33.6167 15.4806Z" fill="#FBC02D"/>
<path d="M4.86084 11.3243L9.92598 15.039C11.2965 11.6457 14.6157 9.25 18.5 9.25C20.8579 9.25 23.0032 10.1395 24.6366 11.5926L28.9972 7.23195C26.2438 4.66585 22.5607 3.08333 18.5 3.08333C12.5784 3.08333 7.44313 6.42643 4.86084 11.3243Z" fill="#E53935"/>
<path d="M18.5001 33.9167C22.4822 33.9167 26.1005 32.3927 28.8362 29.9145L24.0647 25.8769C22.5169 27.0493 20.5929 27.75 18.5001 27.75C14.4902 27.75 11.0854 25.1931 9.80277 21.625L4.77539 25.4984C7.32685 30.4911 12.5084 33.9167 18.5001 33.9167Z" fill="#4CAF50"/>
<path d="M33.6168 15.4807L33.6045 15.4167H32.375H18.5V21.5833H27.2127C26.6022 23.3077 25.493 24.7946 24.0623 25.8777L24.0646 25.8761L28.8361 29.9137C28.4985 30.2205 33.9167 26.2083 33.9167 18.5C33.9167 17.4663 33.8103 16.4573 33.6168 15.4807Z" fill="#1565C0"/>
</svg>
