<svg width="37" height="37" viewBox="0 0 37 37" fill="none" xmlns="http://www.w3.org/2000/svg">
<path d="M18.4999 16.9583C19.7196 16.9583 20.9118 16.5967 21.9259 15.9191C22.94 15.2415 23.7304 14.2784 24.1972 13.1516C24.6639 12.0247 24.786 10.7848 24.5481 9.58861C24.3102 8.3924 23.7228 7.2936 22.8604 6.43118C21.998 5.56875 20.8992 4.98144 19.703 4.74349C18.5068 4.50555 17.2668 4.62767 16.14 5.09441C15.0132 5.56115 14.0501 6.35155 13.3725 7.36565C12.6949 8.37976 12.3333 9.57202 12.3333 10.7917C12.3333 12.4272 12.983 13.9957 14.1394 15.1522C15.2959 16.3086 16.8644 16.9583 18.4999 16.9583ZM18.4999 7.70834C19.1097 7.70834 19.7059 7.88917 20.2129 8.22797C20.72 8.56677 21.1152 9.04832 21.3485 9.61173C21.5819 10.1751 21.643 10.7951 21.524 11.3932C21.405 11.9913 21.1114 12.5407 20.6802 12.9719C20.249 13.4031 19.6996 13.6968 19.1014 13.8158C18.5033 13.9347 17.8834 13.8737 17.32 13.6403C16.7566 13.4069 16.275 13.0117 15.9362 12.5047C15.5974 11.9976 15.4166 11.4015 15.4166 10.7917C15.4166 9.97392 15.7414 9.18966 16.3197 8.61142C16.8979 8.03319 17.6822 7.70834 18.4999 7.70834Z" fill="black"/>
<path d="M18.4997 20.0417C15.6375 20.0417 12.8926 21.1786 10.8688 23.2025C8.84498 25.2263 7.70801 27.9712 7.70801 30.8333C7.70801 31.2422 7.87043 31.6343 8.15955 31.9235C8.44867 32.2126 8.8408 32.375 9.24967 32.375C9.65855 32.375 10.0507 32.2126 10.3398 31.9235C10.6289 31.6343 10.7913 31.2422 10.7913 30.8333C10.7913 28.789 11.6035 26.8283 13.0491 25.3827C14.4947 23.9371 16.4553 23.125 18.4997 23.125C20.5441 23.125 22.5047 23.9371 23.9503 25.3827C25.3959 26.8283 26.208 28.789 26.208 30.8333C26.208 31.2422 26.3704 31.6343 26.6596 31.9235C26.9487 32.2126 27.3408 32.375 27.7497 32.375C28.1586 32.375 28.5507 32.2126 28.8398 31.9235C29.1289 31.6343 29.2913 31.2422 29.2913 30.8333C29.2913 27.9712 28.1544 25.2263 26.1305 23.2025C24.1067 21.1786 21.3618 20.0417 18.4997 20.0417Z" fill="black"/>
</svg>
