<svg width="22" height="22" viewBox="0 0 22 22" fill="none" xmlns="http://www.w3.org/2000/svg">
<path d="M9.03841 16.5C8.91272 16.4996 8.78846 16.4733 8.67334 16.4229C8.55822 16.3724 8.45471 16.2988 8.36925 16.2067L3.91425 11.4675C3.74771 11.29 3.6585 11.0537 3.66624 10.8104C3.67397 10.5672 3.77802 10.337 3.9555 10.1704C4.13297 10.0039 4.36933 9.91467 4.61258 9.92241C4.85583 9.93014 5.08604 10.0342 5.25258 10.2117L9.02925 14.2358L16.7384 5.8025C16.8166 5.70508 16.914 5.62468 17.0244 5.56624C17.1348 5.5078 17.2561 5.47256 17.3806 5.46267C17.5052 5.45279 17.6304 5.46847 17.7487 5.50876C17.867 5.54904 17.9758 5.61308 18.0684 5.69694C18.161 5.7808 18.2355 5.88271 18.2873 5.99642C18.3391 6.11012 18.3671 6.23321 18.3696 6.35813C18.3721 6.48305 18.3491 6.60716 18.3018 6.72285C18.2546 6.83853 18.1843 6.94334 18.0951 7.03084L9.71675 16.1975C9.63208 16.2913 9.52893 16.3666 9.41378 16.4187C9.29862 16.4707 9.17394 16.4984 9.04758 16.5H9.03841Z" fill="white"/>
</svg>
