<svg width="20" height="17" viewBox="0 0 20 17" fill="none" xmlns="http://www.w3.org/2000/svg">
<path d="M7.85894 7.85894C6.77834 7.85894 5.85327 7.47418 5.08375 6.70466C4.31423 5.93514 3.92947 5.01008 3.92947 3.92947C3.92947 2.84887 4.31423 1.9238 5.08375 1.15428C5.85327 0.384761 6.77834 0 7.85894 0C8.93955 0 9.86461 0.384761 10.6341 1.15428C11.4037 1.9238 11.7884 2.84887 11.7884 3.92947C11.7884 5.01008 11.4037 5.93514 10.6341 6.70466C9.86461 7.47418 8.93955 7.85894 7.85894 7.85894ZM0 15.7179V12.9673C0 12.427 0.139169 11.9194 0.417506 11.4446C0.695844 10.9698 1.0806 10.6096 1.57179 10.364C2.4068 9.93829 3.34824 9.57809 4.3961 9.28338C5.44395 8.98867 6.59824 8.84131 7.85894 8.84131H8.20277C8.30101 8.84131 8.39925 8.85768 8.49748 8.89043C8.3665 9.18514 8.25598 9.49213 8.16593 9.8114C8.07588 10.1307 8.0063 10.4622 7.95718 10.806H7.85894C6.69647 10.806 5.65271 10.9534 4.72764 11.2481C3.80258 11.5428 3.04534 11.8375 2.45592 12.1322C2.30856 12.2141 2.18986 12.3287 2.09981 12.4761C2.00976 12.6234 1.96474 12.7872 1.96474 12.9673V13.7531H8.15365C8.25189 14.097 8.38287 14.4367 8.5466 14.7724C8.71033 15.108 8.89043 15.4232 9.0869 15.7179H0ZM13.7531 16.7003L13.4584 15.2267C13.262 15.1448 13.0778 15.0589 12.9059 14.9688C12.7339 14.8788 12.5579 14.7683 12.3778 14.6373L10.9534 15.0793L9.97103 13.4093L11.1008 12.427C11.068 12.1977 11.0516 11.9849 11.0516 11.7884C11.0516 11.5919 11.068 11.3791 11.1008 11.1499L9.97103 10.1675L10.9534 8.49748L12.3778 8.93955C12.5579 8.80857 12.7339 8.69805 12.9059 8.608C13.0778 8.51795 13.262 8.43199 13.4584 8.35013L13.7531 6.87657H15.7179L16.0126 8.35013C16.2091 8.43199 16.3933 8.52204 16.5652 8.62028C16.7371 8.71851 16.9131 8.84131 17.0932 8.98867L18.5176 8.49748L19.5 10.2166L18.3703 11.199C18.403 11.3955 18.4194 11.6001 18.4194 11.813C18.4194 12.0258 18.403 12.2305 18.3703 12.427L19.5 13.4093L18.5176 15.0793L17.0932 14.6373C16.9131 14.7683 16.7371 14.8788 16.5652 14.9688C16.3933 15.0589 16.2091 15.1448 16.0126 15.2267L15.7179 16.7003H13.7531ZM14.7355 13.7531C15.2758 13.7531 15.7384 13.5608 16.1231 13.176C16.5079 12.7912 16.7003 12.3287 16.7003 11.7884C16.7003 11.2481 16.5079 10.7856 16.1231 10.4008C15.7384 10.0161 15.2758 9.82368 14.7355 9.82368C14.1952 9.82368 13.7327 10.0161 13.3479 10.4008C12.9632 10.7856 12.7708 11.2481 12.7708 11.7884C12.7708 12.3287 12.9632 12.7912 13.3479 13.176C13.7327 13.5608 14.1952 13.7531 14.7355 13.7531ZM7.85894 5.89421C8.39924 5.89421 8.86178 5.70183 9.24654 5.31707C9.6313 4.9323 9.82368 4.46977 9.82368 3.92947C9.82368 3.38917 9.6313 2.92664 9.24654 2.54188C8.86178 2.15712 8.39924 1.96474 7.85894 1.96474C7.31864 1.96474 6.85611 2.15712 6.47135 2.54188C6.08659 2.92664 5.89421 3.38917 5.89421 3.92947C5.89421 4.46977 6.08659 4.9323 6.47135 5.31707C6.85611 5.70183 7.31864 5.89421 7.85894 5.89421Z" fill="white"/>
</svg>
