<svg width="26" height="26" viewBox="0 0 26 26" fill="none" xmlns="http://www.w3.org/2000/svg">
<mask id="mask0_42_44" style="mask-type:alpha" maskUnits="userSpaceOnUse" x="0" y="0" width="26" height="26">
<rect width="26" height="26" fill="#D9D9D9"/>
</mask>
<g mask="url(#mask0_42_44)">
<path d="M9.75 20.5833V18.4167H22.75V20.5833H9.75ZM9.75 14.0833V11.9167H22.75V14.0833H9.75ZM9.75 7.58334V5.41668H22.75V7.58334H9.75ZM5.41667 21.6667C4.82083 21.6667 4.31076 21.4545 3.88646 21.0302C3.46215 20.6059 3.25 20.0958 3.25 19.5C3.25 18.9042 3.46215 18.3941 3.88646 17.9698C4.31076 17.5455 4.82083 17.3333 5.41667 17.3333C6.0125 17.3333 6.52257 17.5455 6.94688 17.9698C7.37118 18.3941 7.58333 18.9042 7.58333 19.5C7.58333 20.0958 7.37118 20.6059 6.94688 21.0302C6.52257 21.4545 6.0125 21.6667 5.41667 21.6667ZM5.41667 15.1667C4.82083 15.1667 4.31076 14.9545 3.88646 14.5302C3.46215 14.1059 3.25 13.5958 3.25 13C3.25 12.4042 3.46215 11.8941 3.88646 11.4698C4.31076 11.0455 4.82083 10.8333 5.41667 10.8333C6.0125 10.8333 6.52257 11.0455 6.94688 11.4698C7.37118 11.8941 7.58333 12.4042 7.58333 13C7.58333 13.5958 7.37118 14.1059 6.94688 14.5302C6.52257 14.9545 6.0125 15.1667 5.41667 15.1667ZM5.41667 8.66668C4.82083 8.66668 4.31076 8.45452 3.88646 8.03022C3.46215 7.60591 3.25 7.09584 3.25 6.50001C3.25 5.90418 3.46215 5.39411 3.88646 4.9698C4.31076 4.5455 4.82083 4.33334 5.41667 4.33334C6.0125 4.33334 6.52257 4.5455 6.94688 4.9698C7.37118 5.39411 7.58333 5.90418 7.58333 6.50001C7.58333 7.09584 7.37118 7.60591 6.94688 8.03022C6.52257 8.45452 6.0125 8.66668 5.41667 8.66668Z" fill="#1C1B1F"/>
</g>
</svg>
